<?xml version="1.0" encoding="UTF-8" standalone="no"?>

<svg xmlns:rdf="http://www.w3.org/1999/02/22-rdf-syntax-ns#" xmlns="http://www.w3.org/2000/svg" height="44pt" width="48pt" version="1.1" viewBox="0 0 48 44">

	<path class="snippets-icon-svg" d="M32.72,1.81c3.17-2.27,9.71-1.16,10.32,3.13-2.8,3.72-6.49,6.65-9.64,10.06,4.82,0.53,10.16-1.22,14.6,1.16v1.55c-0.37,3.11-2.35,6.14-5.49,6.97-6.79,1.29-14.04-1.02-20.62,1.25,2.66,1.67,5.56,3.74,6.07,7.1,1.24,5.12-2.91,10.43-8.08,10.8-5.27,0.5-10.37-4.45-9.66-9.79,0.36-4.66,4.73-7.22,7.46-10.49,1.15-0.98,1.02-3.16-0.73-3.37-3.78-0.57-7.75,0.43-11.42-0.89-3.06-1.2-4.99-4.19-5.53-7.35v-2.15c0.83-5.87,7.78-9.74,13.08-6.79,4.59,2.17,5.77,7.83,4.21,12.32,0.58-0.21,1.75-0.61,2.34-0.82,4.57-4,8.38-8.84,13.09-12.69z M7.33,7.4c2.48-1.27,5.79,0.81,5.69,3.61,0.13,3.06-3.88,5.17-6.28,3.23-2.58-1.49-2.15-5.77,0.59-6.84z M17.36,31.38c2.81-1.78,6.74,1.45,5.66,4.56-0.68,2.83-4.68,3.9-6.65,1.74-1.93-1.77-1.4-5.21,0.99-6.3z" fill-rule="evenodd" fill="#fff"/>

</svg>
