<?xml version="1.0" encoding="UTF-8" standalone="no"?>
<!DOCTYPE svg PUBLIC "-//W3C//DTD SVG 20010904//EN" "http://www.w3.org/TR/2001/REC-SVG-20010904/DTD/svg10.dtd">
<!-- Created with Inkscape (http://www.inkscape.org/) -->
<svg height="400pt" id="svg548" inkscape:version="0.38.1" sodipodi:docbase="/var/www/html/svg_gallery/svg/office" sodipodi:docname="scissors.svg" sodipodi:version="0.32" width="400pt" xmlns="http://www.w3.org/2000/svg" xmlns:inkscape="http://www.inkscape.org/namespaces/inkscape" xmlns:sodipodi="http://sodipodi.sourceforge.net/DTD/sodipodi-0.dtd" xmlns:xlink="http://www.w3.org/1999/xlink">
  <metadata>
    <rdf:RDF xmlns:cc="http://web.resource.org/cc/" xmlns:dc="http://purl.org/dc/elements/1.1/" xmlns:rdf="http://www.w3.org/1999/02/22-rdf-syntax-ns#">
      <cc:Work rdf:about="">
        <dc:title>Clipart by Nicu Buculei - book_01</dc:title>
        <dc:description/>
        <dc:subject>
          <rdf:Bag>
            <rdf:li>hash</rdf:li>
            <rdf:li/>
            <rdf:li>education</rdf:li>
          </rdf:Bag>
        </dc:subject>
        <dc:publisher>
          <cc:Agent rdf:about="http://www.openclipart.org">
            <dc:title>Nicu Buculei</dc:title>
          </cc:Agent>
        </dc:publisher>
        <dc:creator>
          <cc:Agent>
            <dc:title>Nicu Buculei</dc:title>
          </cc:Agent>
        </dc:creator>
        <dc:rights>
          <cc:Agent>
            <dc:title>Nicu Buculei</dc:title>
          </cc:Agent>
        </dc:rights>
        <dc:date/>
        <dc:format>image/svg+xml</dc:format>
        <dc:type rdf:resource="http://purl.org/dc/dcmitype/StillImage"/>
        <cc:license rdf:resource="http://web.resource.org/cc/PublicDomain"/>
        <dc:language>en</dc:language>
      </cc:Work>
      <cc:License rdf:about="http://web.resource.org/cc/PublicDomain">
        <cc:permits rdf:resource="http://web.resource.org/cc/Reproduction"/>
        <cc:permits rdf:resource="http://web.resource.org/cc/Distribution"/>
        <cc:permits rdf:resource="http://web.resource.org/cc/DerivativeWorks"/>
      </cc:License>
    </rdf:RDF>
  </metadata>
  <defs id="defs550"/>
  <sodipodi:namedview id="base" inkscape:cx="199.99999" inkscape:cy="200.00006" inkscape:window-height="625" inkscape:window-width="673" inkscape:window-x="137" inkscape:window-y="24" inkscape:zoom="1.0000000" showgrid="true"/>
  <g id="g834">
    <path d="M 130.58 19.2281 C 131.428 19.2281 283.206 268.517 283.206 268.517 C 283.206 268.517 237.418 294.803 238.266 294.803 C 239.114 294.803 112.774 100.629 130.58 19.2281 z " id="path693" style="font-size:12.000000;fill:#dadadb;fill-rule:evenodd;stroke:#000000;stroke-width:10.000006;stroke-linejoin:round;stroke-dasharray:none;" transform="matrix(-0.974540,0.224211,0.224211,0.974540,434.7533,-39.90828)"/>
    <path d="M 267.3664 300.2850 C 267.3664 300.2850 221.9645 419.3382 230.3672 437.0187 C 230.0041 447.8045 196.5707 496.4724 174.9575 496.9446 C 156.3212 498.1163 95.02330 483.4552 104.8511 423.1945 C 116.5367 361.1971 166.8067 382.6865 186.6819 380.3566 C 206.5578 378.0260 240.3401 301.1756 216.8954 284.7878 C 243.0601 291.6678 266.7066 302.0627 267.3664 300.2850 z M 178.0108 388.4627 C 110.2231 370.5833 97.04385 476.9229 157.4235 483.1557 C 225.1185 486.0350 224.5492 396.0294 178.0108 388.4627 z " id="path596" style="font-size:12.000000;fill:#3f3f3f;fill-rule:evenodd;stroke:#000000;stroke-width:10.000000;stroke-linejoin:bevel;stroke-dasharray:none;"/>
    <path d="M 130.58 19.2281 C 131.428 19.2281 283.206 268.517 283.206 268.517 C 283.206 268.517 237.418 294.803 238.266 294.803 C 239.114 294.803 112.774 100.629 130.58 19.2281 z " id="path674" style="font-size:12.000000;fill:#dadadb;fill-rule:evenodd;stroke:#000000;stroke-width:9.9999930;stroke-linejoin:bevel;stroke-dasharray:none;" transform="matrix(0.984591,0.174877,-0.174877,0.984591,41.27270,-35.37063)"/>
    <path d="M 81.4005 200.683 C 66.1379 201.531 63.5942 225.273 81.4005 226.121 C 98.359 225.273 98.3592 200.683 81.4005 200.683 z " id="path710" sodipodi:nodetypes="ccc" style="font-size:12.000000;fill:none;fill-rule:evenodd;stroke:#000000;stroke-width:6.2500000;stroke-dasharray:none;" transform="translate(161.5948,57.16911)"/>
    <path d="M 69.5296 209.163 C 71.2255 209.163 86.4881 224.425 86.4881 224.425 " id="path711" style="font-size:12.000000;fill:none;fill-rule:evenodd;stroke:#000000;stroke-width:6.2500000;stroke-dasharray:none;" transform="translate(161.5948,57.16911)"/>
    <path d="M 76.313 203.227 C 77.1609 203.227 92.4235 218.49 92.4235 218.49 " id="path712" sodipodi:nodetypes="cc" style="font-size:12.000000;fill:none;fill-rule:evenodd;stroke:#000000;stroke-width:6.2500000;stroke-dasharray:none;" transform="translate(161.5948,57.16911)"/>
    <path d="M 311.59912,21.282200 C 312.44712,21.282200 250.54912,207.82500 250.54912,207.82500 C 250.54912,207.82500 257.17737,220.62188 259.72037,219.77388 C 262.26437,218.92588 318.38312,30.609400 311.59912,21.282200 z " id="path717" sodipodi:nodetypes="cccc" style="font-size:12.000000;fill:#e6ffff;fill-opacity:0.75000000;fill-rule:evenodd;stroke-width:1.0000000pt;"/>
    <path d="M 236.859 262.031 L 240.39 257.083 L 256.632 272.608 L 252.681 276.708 L 236.859 262.031 z " id="path718" sodipodi:nodetypes="ccccc" style="font-size:12.000000;fill-opacity:0.31851897;fill-rule:evenodd;stroke-width:1.0000000pt;" transform="translate(-3.750000,3.750000)"/>
    <path d="M 319.2507 379.5357 C 386.0528 358.2670 404.5676 463.8086 344.5781 473.0725 C 277.1137 479.3553 273.1522 389.4350 319.2507 379.5357 z M 225.5702 295.9670 C 225.5702 295.9670 276.9068 412.5843 269.4045 430.6653 C 270.3101 441.4191 306.1506 488.3427 327.7603 487.7265 C 346.4319 487.9587 406.9143 470.2310 394.0659 410.5412 C 379.2748 349.2105 330.1500 373.2028 310.1827 371.8762 C 290.2146 370.5489 252.6071 295.4962 275.1973 277.9491 C 249.4120 286.1373 226.3186 297.7092 225.5702 295.9670 z " id="path590" style="font-size:12.000000;fill:#3f3f40;fill-rule:evenodd;stroke:#000000;stroke-width:10.000000;stroke-linejoin:bevel;stroke-dasharray:none;"/>
  </g>
</svg>